<svg xmlns="http://www.w3.org/2000/svg" width="35" height="35" fill="none"><path fill="#00B2FF" d="M21.584 9.333c.76 0 1.4.49 1.642 1.167h6.048a1.748 1.748 0 0 1 1.643-1.167c.965 0 1.75.785 1.75 1.75s-.785 1.75-1.75 1.75c-.76 0-1.401-.49-1.643-1.167h-6.048a1.748 1.748 0 0 1-1.643 1.167c-.965 0-1.75-.785-1.75-1.75s.786-1.75 1.75-1.75Zm9.333 2.333a.584.584 0 1 0-.001-1.167.584.584 0 0 0 .001 1.167Zm-9.333 0a.584.584 0 1 0-.001-1.167.584.584 0 0 0 0 1.167Z"/><path fill="#00B2FF" d="M16.917 12.94V9.334c0-.155.062-.303.171-.412l2.334-2.334c.109-.11.257-.17.412-.17h1.857a1.748 1.748 0 0 1 1.643-1.167c.965 0 1.75.785 1.75 1.75s-.785 1.75-1.75 1.75c-.76 0-1.401-.49-1.643-1.167h-1.615l-1.992 1.992v3.366a1.748 1.748 0 0 1 1.167 1.642c0 .965-.786 1.75-1.75 1.75-.965 0-1.75-.785-1.75-1.75 0-.76.49-1.401 1.166-1.643Zm6.417-5.357a.584.584 0 1 0-.001-1.168.584.584 0 0 0 .001 1.168Zm-5.833 7.583A.584.584 0 1 0 17.5 14a.584.584 0 0 0 0 1.167ZM6.417 15.166c.27 0 .522.066.75.176l1-1V8.75a.58.58 0 0 1 .171-.413L14.176 2.5a1.72 1.72 0 0 1-.175-.75C14 .785 14.786 0 15.75 0c.964 0 1.75.785 1.75 1.75s-.786 1.75-1.75 1.75c-.27 0-.522-.066-.75-.176L9.334 8.991v5.592a.58.58 0 0 1-.171.412l-1.171 1.172c.11.228.175.48.175.75 0 .964-.785 1.75-1.75 1.75s-1.75-.786-1.75-1.75c0-.965.785-1.75 1.75-1.75Zm9.334-12.833a.584.584 0 1 0-.002-1.167.584.584 0 0 0 .002 1.167ZM6.416 17.5a.584.584 0 1 0-.001-1.168.584.584 0 0 0 .001 1.168ZM1.167 8.274v-2.44a.58.58 0 0 1 .171-.413l4.083-4.083c.11-.11.258-.171.413-.171h3.024A1.748 1.748 0 0 1 10.5 0c.964 0 1.75.785 1.75 1.75S11.465 3.5 10.5 3.5c-.76 0-1.402-.49-1.643-1.167H6.075L2.334 6.075v2.199A1.748 1.748 0 0 1 3.5 9.917c0 .964-.785 1.75-1.75 1.75-.964 0-1.75-.786-1.75-1.75 0-.76.49-1.402 1.167-1.643Zm9.333-5.94a.584.584 0 1 0 0-1.168.584.584 0 0 0 0 1.167ZM1.75 10.5a.584.584 0 1 0 0-1.168.584.584 0 0 0 0 1.168ZM9.333 31.607v-8.381a1.748 1.748 0 0 1-1.166-1.643c0-.965.785-1.75 1.75-1.75.76 0 1.401.49 1.643 1.167h6.048a1.748 1.748 0 0 1 1.642-1.167c.76 0 1.402.49 1.643 1.167h3.366l2.167-2.167a1.721 1.721 0 0 1-.175-.75c0-.965.785-1.75 1.75-1.75.964 0 1.75.785 1.75 1.75s-.786 1.75-1.75 1.75c-.27 0-.522-.066-.75-.176l-2.338 2.338a.582.582 0 0 1-.413.171h-3.607a1.748 1.748 0 0 1-1.643 1.167c-.759 0-1.4-.49-1.642-1.167h-6.049a1.748 1.748 0 0 1-1.06 1.06v8.381a1.747 1.747 0 0 1 1.168 1.643c0 .965-.786 1.75-1.75 1.75-.965 0-1.75-.785-1.75-1.75 0-.76.489-1.401 1.166-1.643ZM28 18.667a.584.584 0 1 0 0-1.169.584.584 0 0 0 0 1.168Zm-8.75 3.5a.584.584 0 1 0 0-1.168.584.584 0 0 0 0 1.167ZM9.917 33.832a.584.584 0 1 0-.001-1.168.584.584 0 0 0 .001 1.168Zm0-11.667a.584.584 0 1 0 0-1.167.584.584 0 0 0 0 1.167Z"/><path fill="#00B2FF" d="M12.25 11.774V9.917a.58.58 0 0 1 .172-.413L19.426 2.5a1.722 1.722 0 0 1-.175-.75C19.25.785 20.036 0 21 0c.76 0 1.4.49 1.642 1.167h2.441c.322 0 .583.26.583.583v1.508l2.167 2.167c.229-.11.48-.175.75-.175.965 0 1.75.785 1.75 1.75s-.785 1.75-1.75 1.75-1.75-.785-1.75-1.75c0-.27.066-.522.176-.75l-2.338-2.338A.58.58 0 0 1 24.5 3.5V2.333h-1.858A1.748 1.748 0 0 1 21.001 3.5c-.27 0-.522-.066-.75-.176l-6.834 6.834v1.616a1.748 1.748 0 0 1 1.167 1.642c0 .965-.785 1.75-1.75 1.75s-1.75-.785-1.75-1.75c0-.759.49-1.4 1.167-1.642Zm16.334-4.19a.584.584 0 1 0-.001-1.169.584.584 0 0 0 .001 1.168Zm-7.583-5.25A.584.584 0 1 0 21 1.165a.584.584 0 0 0 0 1.167ZM12.834 14a.584.584 0 1 0-.001-1.168.584.584 0 0 0 .001 1.168Z"/><path fill="#00B2FF" d="M14 16.333c.76 0 1.402.49 1.643 1.167h6.866l3.33-3.33c.108-.109.257-.17.412-.17h6.175l1.408-1.408V7.825l-4.5-4.5c-.229.109-.48.175-.75.175-.965 0-1.75-.785-1.75-1.75S27.619 0 28.584 0s1.75.785 1.75 1.75c0 .27-.066.521-.176.75l4.672 4.67c.11.11.17.258.17.413v5.25a.581.581 0 0 1-.17.412l-1.75 1.75a.582.582 0 0 1-.413.171h-6.175l-3.33 3.33a.582.582 0 0 1-.412.17h-7.107A1.748 1.748 0 0 1 14 19.833c-.964 0-1.75-.785-1.75-1.75s.786-1.75 1.75-1.75ZM28.584 1.167a.584.584 0 1 0 .001 1.167.584.584 0 0 0-.001-1.167ZM14 18.667a.584.584 0 1 0-.002-1.169.584.584 0 0 0 .002 1.168ZM1.75 14c.27 0 .522.066.75.175l2.167-2.167V8.643A1.748 1.748 0 0 1 3.5 7c0-.965.785-1.75 1.75-1.75S7 6.035 7 7c0 .76-.49 1.401-1.166 1.643v3.607a.58.58 0 0 1-.171.412L3.325 15c.11.228.175.48.175.75 0 .76-.49 1.4-1.166 1.642v.45l4.495 4.495c.11.11.171.258.171.413v.69a1.748 1.748 0 0 1 1.167 1.643c0 .76-.49 1.401-1.167 1.643v1.382a1.748 1.748 0 0 1 1.167 1.642c0 .965-.785 1.75-1.75 1.75s-1.75-.785-1.75-1.75c0-.76.49-1.401 1.167-1.642v-1.382a1.748 1.748 0 0 1-1.167-1.643c0-.76.49-1.401 1.167-1.643v-.449l-4.496-4.495a.58.58 0 0 1-.171-.413v-.69A1.748 1.748 0 0 1 0 15.75C0 14.785.785 14 1.75 14Zm3.5-6.417a.584.584 0 1 0 0-1.168.584.584 0 0 0 0 1.168Zm1.167 22.75a.584.584 0 1 0-.001-1.168.584.584 0 0 0 .001 1.168Zm0-4.667a.584.584 0 1 0-.001-1.168.584.584 0 0 0 .001 1.168ZM1.75 16.333a.584.584 0 1 0-.001-1.168.584.584 0 0 0 .001 1.168Z"/></svg>