<svg xmlns="http://www.w3.org/2000/svg" width="40" height="40" fill="none"><path fill="#F8FDFF" d="M26.617 22.454c-1.235-1.181-1.323-1.181-.265-2.545C27.676 18.182 29.44 16 27.852 16h-2.911c-.53 0-.618.364-.794.818-.706 1.727-2.118 4-2.647 3.636-.53-.363-.265-1.727-.265-3.908a.722.722 0 0 0-.177-.728c-.176-.181-.44-.363-.706-.363-.44-.091-.882-.182-1.323-.182-1.676 0-2.823.727-2.206.818 1.147.182 1.059 2.727.794 3.818-.44 1.91-2.206-1.454-3-3.181a.865.865 0 0 0-.882-.728h-2.294c-.353 0-.618.091-.618.364 0 .454 2.206 4.909 4.236 7.181 2.029 2.182 4.058 2 5.47 2 .176 0 .353-.09.441-.182a.706.706 0 0 0 .177-.454c0-1.455.529-2.182 1.5-1.182 1.058 1.09 1.323 1.818 2.647 1.818h2.382c.617 0 .794-.182.794-.454.088-.637-.97-1.819-1.853-2.637ZM20.352 5.001c8.206.182 14.735 7 14.647 15.272-.088 8.272-6.882 14.817-15.088 14.726C11.617 34.91 5 28.272 5 20c.088-8.363 6.97-15.09 15.352-15Z"/></svg>